HIERARCHY
ROOT SpineBase
{
  OFFSET 0.000000 0.000000 0.000000
  CHANNELS 6 Xposition Yposition Zposition Zrotation Xrotation Yrotation
  JOINT SpineMid
  {
    OFFSET 0.000000 28.567048 0.000000
    CHANNELS 3 Zrotation Xrotation Yrotation
    JOINT SpineShoulder
    {
      OFFSET -0.084126 21.242411 -0.608889
      CHANNELS 3 Zrotation Xrotation Yrotation
      JOINT Neck
      {
        OFFSET -0.057497 7.037069 -0.470814
        CHANNELS 3 Zrotation Xrotation Yrotation
        JOINT Head
        {
          OFFSET -1.780712 12.669937 -0.919979
          CHANNELS 3 Zrotation Xrotation Yrotation
          End Site
          {
            OFFSET 0 0 0
          }
        }
      }
      JOINT ShoulderLeft
      {
        OFFSET -16.145167 -1.750008 6.135460
        CHANNELS 3 Zrotation Xrotation Yrotation
        JOINT ElbowLeft
        {
          OFFSET -5.368705 -25.552352 2.883893
          CHANNELS 3 Zrotation Xrotation Yrotation
          JOINT WristLeft
          {
            OFFSET -2.895894 -20.173861 -2.696536
            CHANNELS 3 Zrotation Xrotation Yrotation
            JOINT HandLeft
            {
              OFFSET -0.279061 -6.703394 -2.850778
              CHANNELS 3 Zrotation Xrotation Yrotation
              JOINT HandTipLeft
              {
                OFFSET -0.352444 -6.233502 -1.009796
                CHANNELS 3 Zrotation Xrotation Yrotation
                End Site
                {
                  OFFSET 0 0 0
                }
              }
              JOINT ThumbLeft
              {
                OFFSET -3.081991 0.242333 -1.840478
                CHANNELS 3 Zrotation Xrotation Yrotation
                End Site
                {
                  OFFSET 0 0 0
                }
              }
            }
          }
        }
      }
      JOINT ShoulderRight
      {
        OFFSET 15.349901 -1.507462 -4.554536
        CHANNELS 3 Zrotation Xrotation Yrotation
        JOINT ElbowRight
        {
          OFFSET 5.305807 -26.081157 -2.979185
          CHANNELS 3 Zrotation Xrotation Yrotation
          JOINT WristRight
          {
            OFFSET 0.515791 -20.066887 -4.910205
            CHANNELS 3 Zrotation Xrotation Yrotation
            JOINT HandRight
            {
              OFFSET -1.939793 -7.944426 -1.197028
              CHANNELS 3 Zrotation Xrotation Yrotation
              JOINT HandTipRight
              {
                OFFSET 0.231580 -7.199263 -0.816170
                CHANNELS 3 Zrotation Xrotation Yrotation
                End Site
                {
                  OFFSET 0 0 0
                }
              }
              JOINT ThumbRight
              {
                OFFSET 2.472053 -1.304371 -2.487771
                CHANNELS 3 Zrotation Xrotation Yrotation
                End Site
                {
                  OFFSET 0 0 0
                }
              }
            }
          }
        }
      }
    }
  }
  JOINT HipLeft
  {
    OFFSET -7.315685 0.367343 -1.383054
    CHANNELS 3 Zrotation Xrotation Yrotation
    JOINT KneeLeft
    {
      OFFSET -7.536667 -31.916631 3.022623
      CHANNELS 3 Zrotation Xrotation Yrotation
      JOINT AnkleLeft
      {
        OFFSET -2.677980 -34.973406 7.299434
        CHANNELS 3 Zrotation Xrotation Yrotation
        JOINT FootLeft
        {
          OFFSET -2.472017 -3.934782 -12.488873
          CHANNELS 3 Zrotation Xrotation Yrotation
          End Site
          {
            OFFSET 0 0 0
          }
        }
      }
    }
  }
  JOINT HipRight
  {
    OFFSET 6.722369 0.888776 -4.633438
    CHANNELS 3 Zrotation Xrotation Yrotation
    JOINT KneeRight
    {
      OFFSET 3.868994 -29.052445 2.527347
      CHANNELS 3 Zrotation Xrotation Yrotation
      JOINT AnkleRight
      {
        OFFSET 0.898132 -36.455252 9.443435
        CHANNELS 3 Zrotation Xrotation Yrotation
        JOINT FootRight
        {
          OFFSET -2.350756 -5.760132 -9.169087
          CHANNELS 3 Zrotation Xrotation Yrotation
          End Site
          {
            OFFSET 0 0 0
          }
        }
      }
    }
  }
}
MOTION
Frames: 12
Frame Time: 0.033333
34.835805 74.322934 362.243438 -0.000000 0.000000 13.036588 0.000000 0.000000 -13.036588 -0.000000 0.000000 0.000000 -0.000000 0.000000 0.000000 0.000000 0.000000 0.000000 -0.000000 0.000000 0.000000 -0.000000 0.000000 0.000000 -0.000000 0.000000 0.000000 -0.000000 0.000000 0.000000 0.000000 0.000000 0.000000 0.000000 0.000000 0.000000 -0.000000 0.000000 0.000000 -0.000000 0.000000 0.000000 -0.000000 0.000000 0.000000 -0.000000 0.000000 0.000000 0.000000 0.000000 0.000000 0.000000 0.000000 0.000000 0.000000 0.000000 -13.036588 -0.000000 0.000000 0.000000 -0.000000 0.000000 0.000000 0.000000 0.000000 0.000000 0.000000 0.000000 -13.036588 -0.000000 0.000000 0.000000 -0.000000 0.000000 0.000000 0.000000 0.000000 0.000000
34.559318 74.336833 362.225949 -0.093253 0.041900 12.971818 0.081468 -0.061763 -12.971740 -0.000000 0.000000 0.000000 -0.000000 0.000000 0.000000 0.000000 0.000000 0.000000 -0.000000 0.000000 0.000000 -0.000000 0.000000 0.000000 -0.000000 0.000000 0.000000 0.810800 -1.804212 -0.016611 0.000000 0.000000 0.000000 0.000000 0.000000 0.000000 -0.000000 0.000000 0.000000 -0.000000 0.000000 0.000000 -0.000000 0.000000 0.000000 -1.653483 2.420018 0.299670 0.000000 0.000000 0.000000 0.000000 0.000000 0.000000 0.081468 -0.061763 -12.971740 -0.000000 0.000000 0.000000 0.617250 -6.671060 2.799534 0.000000 0.000000 0.000000 0.802561 0.781682 -12.800569 -0.516385 -0.982201 -0.180127 -0.854389 3.772260 -0.143873 0.000000 0.000000 0.000000
34.313753 74.345486 362.212199 -0.159810 0.076221 12.930089 0.138703 -0.110048 -12.929850 -0.000000 0.000000 0.000000 -0.000000 0.000000 0.000000 0.000000 0.000000 0.000000 -0.000000 0.000000 0.000000 -0.000000 0.000000 0.000000 -0.000000 0.000000 0.000000 1.266066 -2.827852 -0.013999 0.000000 0.000000 0.000000 0.000000 0.000000 0.000000 -0.000000 0.000000 0.000000 -0.000000 0.000000 0.000000 -0.000000 0.000000 0.000000 -3.029634 4.486077 0.604441 0.000000 0.000000 0.000000 0.000000 0.000000 0.000000 0.138703 -0.110048 -12.929850 0.650640 0.566438 0.089340 0.864319 -13.679259 5.621518 0.000000 0.000000 0.000000 1.455180 1.385018 -12.628611 -0.958253 -1.746441 -0.330494 -1.560576 6.586347 -0.106454 0.000000 0.000000 0.000000
34.099111 74.348892 362.202186 -0.199785 0.103004 12.911542 0.171718 -0.145040 -12.911146 -0.000000 0.000000 0.000000 -0.000000 0.000000 0.000000 0.000000 0.000000 0.000000 0.441668 0.860691 -0.134532 -0.439696 -0.861700 0.127908 0.047279 0.959863 -0.060249 1.369784 -4.130132 0.073081 0.000000 0.000000 0.000000 0.000000 0.000000 0.000000 -0.000000 0.000000 0.000000 -0.000000 0.000000 0.000000 -0.879367 0.391659 0.039780 -3.235168 5.808140 0.823470 0.000000 0.000000 0.000000 0.000000 0.000000 0.000000 0.171718 -0.145040 -12.911146 0.932324 0.801734 0.126943 1.633220 -19.385812 8.324618 0.000000 0.000000 0.000000 1.929819 1.768591 -12.523339 -1.302423 -2.248680 -0.438283 -2.155982 8.582101 0.075538 0.000000 0.000000 0.000000
33.915392 74.347051 362.195912 -0.213264 0.122280 12.916248 0.180536 -0.166855 -12.915757 -0.000000 0.000000 0.000000 0.161231 0.877272 0.133820 0.000000 0.000000 0.000000 0.583199 1.007631 -0.151333 -0.799900 -0.075286 0.034036 -0.226045 0.316108 0.239813 1.700553 -4.135461 -0.113558 0.000000 0.000000 0.000000 0.000000 0.000000 0.000000 -0.000000 0.000000 0.000000 -0.890805 0.153856 0.223099 -0.355149 0.257415 -0.132075 -3.659101 7.152954 1.000942 0.000000 0.000000 0.000000 0.000000 0.000000 0.000000 0.180536 -0.166855 -12.915757 1.184345 1.004397 0.160326 2.308470 -23.461205 10.499102 0.000000 0.000000 0.000000 2.204673 1.903043 -12.486009 -1.530273 -2.457626 -0.493250 -2.664466 9.862284 0.381217 0.000000 0.000000 0.000000
33.762595 74.339964 362.193376 -0.200307 0.134074 12.944204 0.165185 -0.175535 -12.943717 -0.000000 0.000000 0.000000 0.301990 0.959805 0.154335 0.000000 0.000000 0.000000 0.723641 1.090215 -0.154651 -1.130374 0.180776 0.009361 -0.858148 0.191685 0.594675 2.065426 -3.434513 -0.446637 0.000000 0.000000 0.000000 0.000000 0.000000 0.000000 -0.000000 0.000000 0.000000 -1.181176 0.152147 0.294495 -0.466235 0.219106 -0.132725 -3.748281 8.210949 1.100193 0.000000 0.000000 0.000000 0.000000 0.000000 0.000000 0.165185 -0.175535 -12.943717 1.406354 1.174023 0.189814 2.587242 -25.522465 11.792498 0.000000 0.000000 0.000000 2.266822 1.775129 -12.516997 -0.913841 -1.976664 -0.268168 -3.774223 10.118500 0.579980 0.000000 0.000000 0.000000
33.628470 74.330917 362.165991 -0.145681 0.155035 12.799384 0.107716 -0.183456 -12.799015 -0.000000 0.000000 0.000000 0.416982 0.913390 0.155341 0.000000 0.000000 0.000000 0.996725 1.387923 -0.191816 -1.424563 -0.208466 0.049252 -2.068178 2.055687 1.049388 2.957257 -1.221379 -1.018060 0.000000 0.000000 0.000000 0.000000 0.000000 0.000000 0.902271 0.156658 -0.072303 -2.552247 0.000217 0.475445 -0.656417 0.298800 -0.167183 -2.400342 7.695004 0.864196 0.000000 0.000000 0.000000 0.000000 0.000000 0.000000 0.107716 -0.183456 -12.799015 1.644215 1.257182 0.229663 2.058607 -25.042135 12.367584 0.000000 0.000000 0.000000 1.788528 1.132789 -12.475277 -0.399428 -0.978167 -0.071206 -3.504051 5.834344 1.157106 0.000000 0.000000 0.000000
33.569193 74.313888 362.152715 -0.054722 0.181783 12.903684 0.012746 -0.189413 -12.903576 -0.000000 0.000000 0.000000 0.617015 0.800586 0.152975 0.000000 0.000000 0.000000 1.271826 1.291687 -0.142708 -1.386620 0.219606 -0.088749 -3.878629 0.731186 1.764524 5.599442 -0.228398 -1.853435 0.000000 0.000000 0.000000 0.000000 0.000000 0.000000 1.070569 0.144615 -0.094031 -2.979356 -0.333728 0.546182 -1.231989 0.906326 -0.137963 -1.963545 8.819199 0.966001 0.000000 0.000000 0.000000 0.000000 0.000000 0.000000 0.012746 -0.189413 -12.903576 1.790245 1.331947 0.251785 1.961166 -25.228229 12.167042 0.000000 0.000000 0.000000 0.983525 0.419196 -12.727207 0.514233 0.104114 0.190381 -4.253168 5.100205 1.799775 0.000000 0.000000 0.000000
33.528373 74.317738 362.105416 0.051534 0.177306 13.114667 -0.090421 -0.160988 -13.114873 -0.000000 0.000000 0.000000 0.938540 0.790288 0.172638 0.000000 0.000000 0.000000 1.335957 0.614617 0.014528 -1.747608 2.368408 -0.394087 -5.148451 -1.042128 2.453580 5.689838 1.004288 -2.352876 0.000000 0.000000 0.000000 0.000000 0.000000 0.000000 1.187039 0.156202 -0.105200 -3.539787 0.126848 0.684402 -1.141551 -0.119570 -0.105726 -1.007708 8.191188 0.616019 0.000000 0.000000 0.000000 0.000000 0.000000 0.000000 0.409866 -0.802289 -12.929901 1.342807 1.937481 0.082356 0.795491 -22.038257 10.740698 0.000000 0.000000 0.000000 -0.090421 -0.160988 -13.114873 1.480917 0.893774 0.394780 -4.835056 6.006325 2.073530 0.000000 0.000000 0.000000
33.473872 74.292110 362.165251 0.122962 0.099050 13.403969 -0.142574 -0.067847 -13.404159 -0.000000 0.000000 0.000000 1.374087 0.609378 0.177887 0.000000 0.000000 0.000000 1.238357 0.146000 0.107776 -2.823365 4.527284 -0.504671 -5.573727 -4.811612 2.981344 4.333513 6.767724 -2.749107 0.000000 0.000000 0.000000 0.000000 0.000000 0.000000 1.244943 0.145040 -0.114013 -3.966607 0.339675 0.793687 -0.735584 -0.859943 -0.100300 -1.179895 6.932742 0.415134 0.000000 0.000000 0.000000 0.000000 0.000000 0.000000 -0.142574 -0.067847 -13.404159 2.030822 1.563886 0.277595 0.724484 -21.901252 10.173735 0.000000 0.000000 0.000000 -0.142574 -0.067847 -13.404159 1.599004 0.745793 0.422768 -5.703768 8.181886 2.435251 0.000000 0.000000 0.000000
33.420607 74.241041 362.310880 0.197691 -0.036511 13.760762 -0.183332 0.082487 -13.760567 -0.000000 0.000000 0.000000 1.798689 0.452096 0.186701 0.000000 0.000000 0.000000 0.878738 -0.208585 0.144806 -3.947312 6.268024 -0.421786 -8.871765 -8.904762 4.282082 9.417284 10.524780 -5.044965 0.000000 0.000000 0.000000 0.000000 0.000000 0.000000 1.379598 0.104326 -0.137278 -4.342034 0.422527 0.881110 -0.452563 -1.371622 -0.068467 -1.226524 7.617346 0.350836 0.000000 0.000000 0.000000 0.000000 0.000000 0.000000 -0.183332 0.082487 -13.760567 2.059339 1.592511 0.280484 -1.170162 -13.411542 6.427353 0.000000 0.000000 0.000000 0.545257 -0.344164 -13.720664 0.718322 0.798386 0.359272 -6.633689 11.352261 2.875569 0.000000 0.000000 0.000000
33.366298 74.170286 362.499768 0.249067 -0.156723 14.136458 -0.203249 0.212806 -14.135740 -0.000000 0.000000 0.000000 2.551268 0.582676 0.253500 0.000000 0.000000 0.000000 -0.053762 -0.882611 0.178791 -7.707526 8.124368 0.424961 -2.070429 -10.890427 3.279247 4.985942 14.156134 -3.532972 0.000000 0.000000 0.000000 0.000000 0.000000 0.000000 1.471960 0.104155 -0.147895 -4.734298 0.073645 0.947759 0.510133 -2.021832 0.002246 -1.651800 7.993383 0.181453 0.000000 0.000000 0.000000 0.000000 0.000000 0.000000 -0.203249 0.212806 -14.135740 2.031913 1.624728 0.272076 -1.540858 -11.465667 5.881783 0.000000 0.000000 0.000000 0.613462 -0.231515 -14.088144 0.595698 0.618866 0.340482 -6.384719 9.845739 3.164912 0.000000 0.000000 0.000000
